Patient4_TMGait_0pt6_01_right_44_EMG.mot
version=1
nRows=30
nColumns=33
inDegrees=no
endheader
time	1LAddLong	2LGlutMax	3LGlutMed	4LIliopsoas	5LSemiMemb	6LBicFemLong	7LRecFem	8LVastMed	9LVastLat	10LGasMed	11LTibAnt	12lTibPost	13LPeroneusLong	14LSol	15LExtDigLong	16LFlexDigLong	17RAddLong	18RGlutMax	19RGlutMed	20RIliopsoas	21RSemiMemb	22RBicFemLong	23RRecFem	24RVastMed	25RVastLat	26RGasMed	27RTibAnt	28RTibPost	29RPeroneusLong	30RSol	31RExtDigLong	32RFlexDigLong
52.92	-0.021515	-0.044098	-0.050354	-0.057373	0.016327	0.2356	0.061493	-0.003815	0.10086	-0.22232	-0.32303	0.037689	-0.66009	0.19989	-0.087433	0.025024	-0.024567	-0.023651	0.31876	0.033417	-0.000305	0.067291	0.27161	0.023499	0.00946	0.004272	-0.21027	0.001221	-0.099792	-0.042877	0.005341	0.005951
52.921	-0.014038	0.00412	0.10223	-0.014496	0.002899	0.4805	0.030975	0.007172	0.079498	-0.23346	-0.1181	0.038147	-0.37338	0.017853	-0.072937	0.010986	-0.14221	0.024261	0.37247	0.001068	0.048218	0.091858	0.1973	0.079498	0.000763	0.005341	0.037079	0.001373	-0.13886	-0.040741	-0.003357	0.001221
52.922	-0.000305	0.023193	0.16419	0.00351	0.014191	0.35416	-0.001678	0.014801	0.089569	-0.45761	-0.028534	0.026703	-0.1648	0.032349	-0.018311	0.010986	-0.18906	-0.008545	0.33188	-0.090179	0.056305	0.095978	0.13214	0.12604	-0.000916	0.005035	0.03952	0.000763	-0.37613	-0.084991	-0.002594	0.002136
52.923	-0.000763	-0.079193	0.15961	0.005188	0.004425	0.32654	-0.016479	0.0177	0.16388	-0.73624	0.003204	0.009613	-0.13504	0.082397	-0.065002	0.008698	-0.18845	0.010986	0.30472	-0.18829	0.022125	0.072327	0.28503	0.063324	-0.009003	0.009918	-0.53574	-0.002594	-0.23514	-0.084686	-0.003052	0.011597
52.924	-0.008698	-0.093384	0.14801	0.000305	0.010529	-0.059967	-0.015564	0.010529	0.18539	-0.41534	0.072021	0.025482	-0.14252	0.10468	-0.1828	-0.005188	-0.18356	-0.024109	0.31113	-0.098724	-0.045319	0.043488	0.3978	-0.003204	-0.016327	0.009613	-0.81863	-0.001678	-0.054779	-0.005493	-0.00946	0.002289
52.925	-0.001068	-0.075684	0.18249	-0.008392	0.011902	-0.37628	-0.078278	-0.000305	0.23407	-0.14801	0.095978	0.017242	0.026245	0.24658	0.039063	0.001678	-0.1651	0.003204	0.29892	-0.037231	0.003815	0.002747	0.35934	-0.054779	-0.046692	0.004272	-0.22308	-0.003662	-0.040131	-0.045166	-0.001831	0.000305
52.926	-0.005341	-0.068665	0.16007	-0.019531	0.003357	0.13473	-0.055542	0.014191	0.2243	-0.088501	0.10132	0.00885	-0.02655	0.41077	0.13596	0.006561	-0.15701	0.036469	0.26154	0.063629	0.040741	-0.003357	0.37109	-0.07843	-0.048676	0.006256	0.25528	-0.001526	0.11795	-0.084991	-0.002289	-0.000458
52.927	-0.001526	-0.085602	0.09079	-0.000153	0.025482	0.27542	-0.063019	0.006104	0.22522	-0.023804	0.10849	0.009155	-0.14023	0.39612	0.25482	0.005493	-0.14954	-0.033112	0.2182	0.1944	0.026245	0.006256	0.18936	-0.12848	-0.066071	0.016785	0.16602	-0.002136	0.44876	-0.0737	-0.001984	0.004578
52.928	-0.003967	-0.065613	0.13931	-0.001678	0.018921	-0.093994	-0.024567	0.002747	0.17593	-0.081024	0.14267	0.002747	-0.085297	0.52689	0.5838	-0.000916	-0.13641	-0.055084	0.21759	0.15091	-0.026093	0.038147	0.14572	-0.13229	-0.059967	0.010834	0.1619	-0.005188	0.38315	-0.040283	0.000305	0.004578
52.929	-0.000916	-0.063782	0.05722	-0.003815	0.010376	0.066376	-0.000458	0.001831	-0.16754	-0.10651	0.0383	0.003357	0.54474	0.49057	0.59097	-0.014648	-0.10712	-0.10666	0.45746	0.054169	-0.019989	0.024261	-0.1004	-0.16281	-0.058899	-0.008545	0.071411	-0.005493	0.22583	0.015869	-0.00061	-0.006714
52.93	-0.002594	-0.059662	-0.059357	-0.000305	0.009308	0.4071	0.023651	0.005646	-0.27344	-0.1239	-0.056915	0.003204	0.27069	0.22064	0.042114	0.005798	-0.070038	-0.14771	0.52063	-0.001678	0.000763	0.013428	-0.16083	-0.18723	-0.057526	-0.009766	0.25116	-0.002136	0.42755	0.016174	0.002136	-0.006409
52.931	-0.001373	-0.032501	-0.089874	0.005493	0.011749	0.15243	0.021362	-0.000153	-0.20294	-0.038147	0.057983	-0.004425	-0.78323	0.24063	-0.11719	-0.000153	-0.070343	-0.13046	0.3389	-0.063934	-0.048065	-0.001221	-0.1149	-0.20432	-0.056305	-0.00412	0.47852	-0.00412	0.43228	-0.001221	-0.004425	-0.009155
52.932	0.005798	-0.016327	-0.029144	-0.001068	0.014191	-0.65247	-0.021973	-0.007935	-0.063324	0.018616	-0.045929	-0.007172	-0.3772	0.2356	-0.24078	0.00412	-0.052185	-0.12863	0.45425	-0.098267	-0.085144	-0.006409	0.11215	-0.25299	-0.065765	-0.006104	0.62195	-0.007324	0.052795	-0.055695	-0.003815	0.001678
52.933	0.012817	-0.033264	0.01709	0.004578	0.016479	-0.44159	-0.035095	-0.003662	0.010223	-0.021515	-0.094147	-0.003204	0.17807	0.11078	-0.7663	0.001373	-0.023499	-0.17059	0.042725	-0.1796	-0.094147	-0.026398	0.37445	-0.32959	-0.061035	-0.01236	0.62103	-0.001678	-0.32318	-0.18066	-0.004883	0.003815
52.934	0.007172	-0.041962	0.046997	0.004578	0.005646	-0.12436	0.007935	-0.000153	-0.015564	-0.059204	-0.070496	-0.004578	0.27863	0.17532	-0.2243	-0.003815	0.000458	-0.14404	-0.081635	-0.13962	-0.13123	-0.002899	0.62286	-0.35065	-0.078278	-0.00885	-0.028992	-0.008087	-0.47333	-0.21408	-0.00412	0.008545
52.935	0.00473	-0.032806	0.13779	0.001221	0.007324	-0.23102	0.033112	-0.004883	-0.06134	-0.020142	-0.007172	-0.005341	0.009613	0.057831	-0.63995	-0.011902	0.009613	-0.13947	0.065918	-0.17609	-0.14343	0.002441	0.79178	-0.36392	-0.095978	0.002747	-0.22598	-0.003052	-0.12878	-0.20432	-0.001373	-0.001678
52.936	0.010681	-0.060272	0.098267	0.007782	0.027161	0.037231	0.0177	-0.006256	0.070801	-0.009155	-0.10346	0.001526	0.2739	-0.000153	-0.33096	-0.010986	0.02594	-0.17441	0.002899	-0.25223	-0.11353	0.025635	0.64179	-0.41779	-0.10056	0.006714	-0.16968	-0.005951	0.19669	-0.14771	-0.001221	0.001373
52.937	0.009308	-0.067596	0.036774	0.021667	0.050507	0.14664	-0.017853	0.004883	0.14374	-0.035706	-0.14481	-0.003662	0.11414	-0.052338	-0.042572	0.004883	0.016174	-0.18326	-0.11032	-0.11932	0.042572	0.045013	0.26718	-0.39246	-0.10346	0.010071	-0.46661	-0.00351	0.60959	-0.17258	-0.00351	0.002441
52.938	0.009613	-0.024261	0.022736	0.026855	0.077515	0.21286	-0.059204	0.004578	0.19531	-0.024414	-0.009918	0.003815	-0.049286	0.005341	0.072021	-0.010986	-0.009766	-0.13046	-0.44479	0.26566	0.092621	0.045929	0.33173	-0.39688	-0.10925	0.008087	-0.45075	-0.005188	0.80566	-0.058441	-0.001831	0.001526
52.939	0.009766	-0.02533	-0.043488	0.021515	0.097351	-0.32272	-0.095062	0.010529	0.21347	-0.007019	0.070953	0.002594	0.054626	-0.000153	-0.049286	-0.007019	-0.007935	-0.088348	-0.28564	0.45837	0.046997	0.043488	0.5864	-0.41443	-0.12558	0.005188	0.005493	-0.004425	0.18509	0.097656	-0.004578	0.000458
52.94	0.019226	-0.019073	-0.017548	0.010681	0.081329	-0.70664	-0.1059	0.002899	0.29816	0.050964	0.10971	0.005035	1.0625	-0.056152	-0.068665	-0.008392	-0.014343	-0.093842	0.18692	0.43198	0.037842	0.051575	0.23117	-0.35965	-0.10269	0.007172	0.042572	-0.010223	-0.14633	0.18402	-0.004578	0.005341
52.941	0.014191	-0.008087	-0.02533	0.006866	0.072327	-0.327	0.005646	0.007019	0.2211	0.077515	0.056	0.006256	0.66498	-0.096436	0.03952	-0.001373	0.009155	-0.048065	0.50003	0.29526	-0.020752	0.049591	-0.27512	-0.19394	0.007324	0.005341	-0.65918	-0.008545	-0.076904	0.1709	-0.004883	0.007477
52.942	0.013123	-0.016785	0.085754	-0.003357	0.053558	0.15656	0.10773	-0.014648	0.034637	0.039368	-0.10483	-0.009155	0.14694	0.036774	-0.026855	0.004578	0.01297	-0.062714	0.83572	0.083466	-0.064545	0.030823	-0.55603	-0.023804	0.050201	0.011292	-0.50369	-0.010223	-0.30868	0.12863	-0.005035	0.009918
52.943	0.013733	-0.054474	0.066376	0.000763	0.028687	0.2832	0.19302	-0.021667	-0.11597	0.003967	-0.09613	0.00412	-0.2829	0.011292	0.27985	-0.005646	0.008392	-0.11871	0.80933	0.017395	-0.057373	0.012817	-0.4895	0.10635	0.052338	0.008545	-0.027161	-0.002747	-0.25436	0.088348	-0.00351	0.00351
52.944	0.006714	-0.087585	0.017548	-0.003052	0.009155	0.46524	0.19684	-0.005188	-0.16708	0.023346	-0.067291	-0.002747	0.18112	-0.13351	0.48325	-0.014343	0.014954	-0.096893	0.68817	-0.027161	-0.021057	-0.007172	-1.0124	0.11688	0.043488	-0.00824	0.17425	-0.009918	-0.009003	0.12161	-0.003662	-0.003662
52.945	0.039063	-0.10971	0.005798	0.004578	0.022278	0.46646	0.19379	-0.005188	-0.12085	0.056152	-0.036621	-0.002136	-0.85922	-0.12833	0.029755	0.001678	-0.007172	-0.11765	0.40573	0.023956	-0.014954	0.028534	-1.3408	0.11093	0.1152	-0.007477	0.21255	-0.002899	-0.089569	0.14435	-0.002289	-0.003357
52.946	-0.06546	-0.090179	0.077209	0.001526	0.051727	0.30701	0.18845	0.010223	-0.1059	0.054779	-0.005035	-0.006256	-0.70358	-0.062256	0.1651	0.008698	-0.000153	-0.064392	0.3244	0.13367	-0.029907	0.016937	-1.1699	0.11337	0.13748	0.002441	0.043182	-0.00473	-0.72494	0.066223	-0.003815	-0.008698
52.947	-0.048523	-0.1004	0.13809	-0.004272	-0.019836	0.37872	0.12894	0.02243	-0.046234	0.10223	0.028839	0.00885	-0.60562	-0.18021	-0.23743	0.010681	0.011139	-0.046997	-0.19104	0.072327	-0.051575	0.007324	-0.99396	0.13901	0.12665	0.007324	-0.010834	-0.003967	-0.77301	-0.028992	0.001221	-0.005188
52.948	0.007172	-0.12436	0.037384	0.015106	-0.000458	0.33417	-0.024414	0.031586	0.02121	0.16586	0.012207	0.019379	-0.13718	-0.15274	0.081787	0.004425	0.005341	-0.084229	-0.38528	-0.016632	-0.040131	0.00946	-0.89325	0.18326	0.11581	0.013733	-0.15381	-0.002136	-0.44357	-0.12772	0.002136	-0.005035
52.949	0.012207	-0.12177	-0.083771	0.012054	0.04425	-0.65842	-0.10971	0.02533	0.068817	0.1059	-0.001526	0.007782	-0.21378	-0.24353	0.16739	0.001831	0.008698	-0.059967	-0.28824	-0.083008	-0.098419	0	-0.66742	0.24002	0.097656	0.016327	-0.077515	-0.006409	0.029602	-0.16449	-0.003815	0.003357
